<?xml version="1.0" encoding="UTF-8"?>
<svg id="Capa_2" data-name="Capa 2" xmlns="http://www.w3.org/2000/svg" viewBox="0 0 424.87 205.11">
  <defs>
    <style>
      .cls-1 {
        fill: #f79b33;
      }
    </style>
  </defs>
  <g id="Capa_1-2" data-name="Capa 1">
    <g>
      <path class="cls-1" d="M38.85,90.65c-7.45,0-14.71-.87-21.77-2.59-7.07-1.73-12.76-3.89-17.08-6.48l9.23-21.04c4.1,2.48,8.9,4.45,14.41,5.91,5.5,1.46,10.9,2.19,16.19,2.19s8.77-.54,10.76-1.62c2-1.08,2.99-2.53,2.99-4.37,0-1.72-.95-2.99-2.83-3.8-1.89-.81-4.37-1.43-7.45-1.86-3.08-.43-6.45-.92-10.12-1.46-3.67-.54-7.36-1.27-11.09-2.19-3.72-.92-7.12-2.32-10.2-4.21-3.08-1.89-5.53-4.45-7.36-7.69-1.84-3.24-2.75-7.34-2.75-12.3,0-5.61,1.64-10.6,4.94-14.97,3.29-4.37,8.12-7.82,14.49-10.36C27.57,1.27,35.34,0,44.52,0,50.67,0,56.9.62,63.22,1.86c6.31,1.24,11.63,3.1,15.95,5.58l-9.23,20.88c-4.32-2.48-8.64-4.18-12.95-5.1-4.32-.92-8.42-1.38-12.3-1.38-5.18,0-8.82.59-10.93,1.78-2.1,1.19-3.16,2.65-3.16,4.37s.92,3.05,2.75,3.97c1.83.92,4.29,1.62,7.37,2.1s6.45.97,10.12,1.46c3.67.49,7.37,1.21,11.09,2.19s7.12,2.4,10.2,4.29c3.08,1.89,5.53,4.43,7.37,7.61,1.83,3.18,2.75,7.26,2.75,12.22,0,5.4-1.65,10.25-4.94,14.57-3.29,4.32-8.15,7.77-14.57,10.36-6.42,2.59-14.38,3.89-23.88,3.89Z"/>
      <path class="cls-1" d="M152.97,1.46v8.78c-1.8-2.12-3.84-3.93-6.15-5.38-5.18-3.24-11.76-4.86-19.75-4.86s-15.11,1.86-21.69,5.58c-6.58,3.72-11.79,8.96-15.62,15.7-3.83,6.75-5.75,14.76-5.75,24.04s1.92,17.32,5.75,24.12c3.83,6.8,9.04,12.04,15.62,15.7,6.58,3.67,13.81,5.5,21.69,5.5s13.95-1.64,19.18-4.94c1.92-1.21,3.67-2.65,5.26-4.31v39.19h30.76V1.46h-29.3ZM142.85,63.78c-2.75,1.62-5.86,2.43-9.31,2.43s-6.56-.81-9.31-2.43-4.97-3.99-6.64-7.12c-1.67-3.13-2.51-6.91-2.51-11.33s.83-8.2,2.51-11.33c1.67-3.13,3.89-5.5,6.64-7.12,2.75-1.62,5.85-2.43,9.31-2.43s6.56.81,9.31,2.43c2.75,1.62,4.96,3.99,6.64,7.12,1.67,3.13,2.51,6.91,2.51,11.33s-.84,8.2-2.51,11.33c-1.67,3.13-3.89,5.5-6.64,7.12Z"/>
      <path class="cls-1" d="M43.34,201.03c-7.36,0-14.54-.85-21.52-2.56-6.99-1.71-12.62-3.84-16.88-6.4l9.12-20.8c4.05,2.45,8.8,4.4,14.24,5.84,5.44,1.44,10.77,2.16,16,2.16s8.67-.53,10.64-1.6c1.97-1.06,2.96-2.5,2.96-4.32,0-1.7-.93-2.96-2.8-3.76-1.87-.8-4.32-1.41-7.36-1.84-3.04-.43-6.38-.91-10-1.44-3.63-.53-7.28-1.25-10.96-2.16-3.68-.91-7.04-2.29-10.08-4.16-3.04-1.86-5.47-4.4-7.28-7.6-1.82-3.2-2.72-7.25-2.72-12.16,0-5.54,1.62-10.48,4.88-14.8,3.25-4.32,8.03-7.73,14.32-10.24,6.29-2.5,13.97-3.76,23.04-3.76,6.08,0,12.24.62,18.48,1.84,6.24,1.23,10.74,2.89,15.01,5.34l-8.24,20.28c-4.27-2.45-8.66-3.59-12.92-4.5-4.27-.9-8.32-1.36-12.16-1.36-5.12,0-8.72.59-10.8,1.76-2.08,1.17-3.12,2.61-3.12,4.32s.91,3.02,2.72,3.92c1.81.91,4.24,1.6,7.28,2.08s6.37.96,10,1.44c3.62.48,7.28,1.2,10.96,2.16s7.04,2.38,10.08,4.24c3.04,1.87,5.46,4.38,7.28,7.52,1.81,3.15,2.72,7.18,2.72,12.08,0,5.33-1.63,10.14-4.88,14.4-3.25,4.27-8.06,7.68-14.4,10.24-6.35,2.56-14.21,3.84-23.6,3.84Z"/>
      <path class="cls-1" d="M140.68,205.11c-2.26-.61-13.93-9.54-18.89-23.83-1.2-3.45-1.5-6.76-1.38-9.61v-32.16h5.75v-20.88h-5.75v-21.04h-30.4v21.04s-4.71,0-4.71,0l-7.93,20.88h12.64v32.48c0,11.1,3.09,19.39,9.28,24.88,6.19,5.49,14.83,8.24,25.92,8.24h15.48Z"/>
      <path class="cls-1" d="M151.55,116.95v43.52s-1.84,18.72,14.4,18.72,16.35-18.16,16.35-18.16l-.03-44.08h-30.72Z"/>
      <path class="cls-1" d="M375.91,205.08c-9.5,0-17.92-1.92-25.28-5.76-7.36-3.84-13.15-9.15-17.36-15.92-4.21-6.77-6.32-14.53-6.32-23.28s2.1-16.48,6.32-23.2c4.21-6.72,10-11.97,17.36-15.76,7.36-3.79,15.79-5.68,25.28-5.68s17.94,1.9,25.36,5.68c7.41,3.79,13.2,9.04,17.36,15.76,4.16,6.72,6.24,14.46,6.24,23.2s-2.08,16.51-6.24,23.28c-4.16,6.78-9.95,12.08-17.36,15.92-7.42,3.84-15.87,5.76-25.36,5.76ZM375.91,180.92c3.52,0,6.64-.8,9.36-2.4,2.72-1.6,4.88-3.97,6.48-7.12,1.6-3.14,2.4-6.9,2.4-11.28s-.8-8.08-2.4-11.12c-1.6-3.04-3.76-5.36-6.48-6.96-2.72-1.6-5.84-2.4-9.36-2.4s-6.48.8-9.2,2.4-4.91,3.92-6.56,6.96c-1.65,3.04-2.48,6.75-2.48,11.12s.83,8.14,2.48,11.28c1.65,3.15,3.84,5.52,6.56,7.12s5.79,2.4,9.2,2.4Z"/>
      <path class="cls-1" d="M304.39,107.32c-5.55,0-10.03-1.55-13.44-4.64-3.41-3.09-5.12-6.93-5.12-11.52s1.71-8.42,5.12-11.52c3.41-3.09,7.89-4.64,13.44-4.64s10.03,1.47,13.44,4.4c3.41,2.94,5.12,6.7,5.12,11.28s-1.68,8.77-5.04,11.92c-3.36,3.15-7.87,4.72-13.52,4.72ZM289.19,203.64v-86.72h30.4v86.72h-30.4Z"/>
      <path class="cls-1" d="M251.43,84.92v39.44c-1.52-1.57-3.2-2.94-5.04-4.08-5.18-3.2-11.5-4.8-18.96-4.8-6.47,0-12.45,1.24-17.96,3.68v82.19c5.5,2.47,11.48,3.73,17.96,3.73,7.79,0,14.24-1.6,19.36-4.8,2.29-1.43,4.3-3.22,6.08-5.33v8.69h28.96v-118.72h-30.4ZM249.51,171.4c-1.6,3.15-3.76,5.52-6.48,7.12s-5.79,2.4-9.2,2.4-6.64-.8-9.36-2.4c-2.72-1.6-4.88-3.97-6.48-7.12-1.6-3.14-2.4-6.9-2.4-11.28s.8-8.08,2.4-11.12,3.76-5.36,6.48-6.96c2.72-1.6,5.84-2.4,9.36-2.4s6.48.8,9.2,2.4,4.88,3.92,6.48,6.96c1.6,3.04,2.4,6.75,2.4,11.12s-.8,8.14-2.4,11.28Z"/>
    </g>
  </g>
</svg>