<?xml version="1.0" encoding="UTF-8"?>
<svg id="Capa_2" data-name="Capa 2" xmlns="http://www.w3.org/2000/svg" viewBox="0 0 125 125">
  <defs>
    <style>
      .cls-1 {
        fill: #1d3239;
      }
    </style>
  </defs>
  <g id="OBJECTS">
    <path class="cls-1" d="M118.47,87c-1.82-1.82-3.97-3.34-6.34-4.44-2.84-1.33-6.03-2.08-9.4-2.08h-3.51c-6.23,0-11.87-3.67-14.39-9.36l-3.83-8.62,3.83-8.62c2.53-5.69,8.17-9.36,14.39-9.36h3.51c3.36,0,6.55-.75,9.4-2.08,2.38-1.1,4.52-2.62,6.34-4.44,4.03-4.03,6.53-9.59,6.53-15.73s-2.5-11.72-6.53-15.74c-1.82-1.83-3.97-3.35-6.34-4.44-2.84-1.33-6.04-2.09-9.4-2.09-.93,0-1.85.07-2.74.18-5.06.61-9.58,2.93-13,6.35-4.04,4.02-6.52,9.58-6.52,15.73v25.38C78.49,20.3,71.2,0,62.5,0s-15.99,20.3-17.97,47.64v-25.38c0-6.15-2.49-11.71-6.52-15.73C34.59,3.11,30.07.79,25.01.18c-.89-.11-1.81-.18-2.74-.18-3.36,0-6.55.76-9.4,2.09-2.38,1.1-4.52,2.61-6.34,4.44C2.5,10.55,0,16.12,0,22.27s2.5,11.71,6.53,15.73c1.82,1.82,3.97,3.35,6.34,4.44,2.84,1.33,6.04,2.08,9.4,2.08h3.51c6.23,0,11.87,3.67,14.39,9.36l3.83,8.62-3.83,8.62c-2.53,5.69-8.17,9.36-14.39,9.36h-3.51c-3.36,0-6.56.75-9.4,2.08-2.38,1.1-4.52,2.62-6.34,4.44-4.03,4.03-6.53,9.59-6.53,15.73s2.5,11.72,6.53,15.74c1.82,1.83,3.97,3.35,6.34,4.44,2.84,1.33,6.04,2.09,9.4,2.09.93,0,1.85-.07,2.74-.18,5.06-.61,9.58-2.93,13-6.35,4.04-4.02,6.52-9.58,6.52-15.73v-25.38c1.97,27.34,9.27,47.64,17.97,47.64s15.99-20.3,17.97-47.64v25.38c0,6.16,2.49,11.71,6.52,15.73,3.42,3.42,7.94,5.74,13,6.35.89.11,1.81.18,2.74.18,3.36,0,6.56-.76,9.4-2.09,2.38-1.1,4.52-2.61,6.34-4.44,4.03-4.02,6.53-9.59,6.53-15.74s-2.5-11.71-6.53-15.73Z"/>
  </g>
</svg>