<?xml version="1.0" encoding="UTF-8"?>
<svg id="Capa_2" data-name="Capa 2" xmlns="http://www.w3.org/2000/svg" viewBox="0 0 125 125">
  <defs>
    <style>
      .cls-1 {
        fill: #e0993e;
      }
    </style>
  </defs>
  <g id="OBJECTS">
    <path class="cls-1" d="M102.74,40.25c-5.84,0-15.68,5.02-24.41,10.29-.02.01-.04.02-.07.04-2.47,1.49-5.33-1.37-3.84-3.84.01-.02.03-.04.04-.07,5.27-8.73,10.29-18.57,10.29-24.41,0-12.29-9.96-22.26-22.26-22.26s-22.25,9.96-22.25,22.26c0,5.84,5.02,15.68,10.29,24.41.01.02.02.05.04.07,1.48,2.47-1.38,5.33-3.85,3.85-.02-.02-.04-.03-.07-.04-8.73-5.27-18.57-10.29-24.41-10.29C9.96,40.25,0,50.21,0,62.5s9.96,22.26,22.26,22.26c5.84,0,15.68-5.02,24.41-10.29.02-.02.05-.03.07-.04,2.47-1.48,5.33,1.37,3.85,3.84-.02.02-.03.05-.04.07-5.27,8.73-10.29,18.58-10.29,24.41,0,12.29,9.96,22.26,22.25,22.26s22.26-9.97,22.26-22.26c0-5.84-5.02-15.68-10.29-24.41-.01-.02-.03-.04-.04-.07-1.48-2.47,1.37-5.33,3.84-3.84.02.01.05.03.07.04,8.73,5.27,18.58,10.29,24.41,10.29,12.29,0,22.26-9.96,22.26-22.26s-9.97-22.25-22.26-22.25ZM74.77,64.04c-5.52.89-9.84,5.22-10.73,10.74l-1.54,9.52-1.54-9.52c-.89-5.52-5.22-9.84-10.74-10.74l-9.52-1.54,9.52-1.54c5.52-.89,9.84-5.22,10.74-10.74l1.54-9.52,1.54,9.52c.89,5.52,5.22,9.84,10.73,10.74l9.52,1.54-9.52,1.54Z"/>
  </g>
</svg>